<?xml version="1.0" encoding="UTF-8"?><svg id="Layer_2" xmlns="http://www.w3.org/2000/svg" width=".38in" height=".23in" viewBox="0 0 27.17 16.62"><path d="M21.79,10.87c-.32-.42-.59-.86-.84-1.32-.09-.23-.2-.45-.35-.65-.18-.24-.44-.27-.64-.18-.06-.05-.11-.1-.18-.15-.18-.11-.37-.18-.58-.21-.06,0-.15,0-.25,0-.16-.06-.33-.07-.51-.03,0,0-.02,0-.03-.01-.2-.2-.49-.16-.67-.01-.07-.05-.15-.09-.24-.13-.4-.14-.63,0-.81.24-.27-.17-.65-.1-.97-.06-.1.01-.2.06-.29.12-.07-.08-.13-.16-.24-.21-.25-.11-.46-.07-.65.04-.09-.33-.29-.57-.74-.53-.1.01-.19.05-.27.1-.18-.13-.36-.15-.53-.08-.03-.3-.15-.55-.47-.68-.18-.08-.33-.07-.45-.03-.11-.22-.29-.41-.59-.49-.2-.06-.36-.04-.48.02-.07-.16-.16-.32-.29-.47-.13-.14-.32-.16-.49-.11-.05-.15-.12-.28-.24-.39-.39-.35-.78-.25-1.11.03-.04-.15-.11-.29-.24-.4-.23-.2-.54-.26-.8-.14-.09-.2-.26-.34-.58-.39-.2-.03-.37.01-.53.08-.19-.51-.88-.51-1.37-.48-.1,0-.2.05-.29.11-.01,0-.02-.01-.03-.02-.21-.09-.42-.06-.61.03-.2-.23-.53-.31-.81-.18-.08.04-.15.09-.2.15-.03-.05-.06-.1-.11-.14-.22-.21-.52-.31-.82-.21-.06.02-.11.05-.17.09-.07-.07-.16-.12-.28-.13l-.61-.07c-.44-.05-.65.57-.35.85.28.27.64.76,1.06.83.05.18.21.34.46.36.05,0,.1,0,.14,0-.02.19.06.38.23.47.33.17.69.21,1.03.11.07.17.22.29.44.32.17.02.32,0,.46-.03.05.17.17.32.34.36.29.07.58.15.87.22.09.02.17.02.25,0,.06.11.15.21.32.29.28.13.56.07.78-.07.02.05.02.1.04.15.2.41.7.53,1.08.3.02-.01.03-.02.04-.03-.01.09-.03.18-.04.27-.02.24.14.4.34.46.12.23.33.37.71.29.01,0,.02,0,.03-.01.05.3.2.58.52.68.43.13.71-.19.87-.53.02-.04.03-.09.05-.13.06.06.13.11.22.15.1.03.2.07.31.1-.01.07,0,.15.02.22-.21.09-.36.25-.34.57-.09,0-.19.02-.29.05-.43.13-.63.48-.59.83-.09,0-.19,0-.28.03-.33.08-.63.32-.73.65-.11-.01-.22-.02-.34,0-.32.07-.66.33-.85.62-.25-.11-.55-.07-.76.11-.05.04-.07.11-.11.16-.1-.06-.22-.08-.37-.02-.46.19-.92.38-1.38.57-.07.03-.12.07-.17.1-.07-.02-.13-.04-.21-.04-.28.01-.53.18-.64.42-.26-.06-.51-.01-.7.18-.09.09-.13.18-.15.27-.06-.02-.12-.03-.2-.03-.33,0-.43.2-.58.41-.48.18-.43.99.15.96.24-.01.36-.09.45-.19.04.03.09.06.13.08.15.09.35.13.52.08.13-.04.25-.14.33-.25.11.18.28.32.46.43.33.19.84.38,1.2.16.05-.03.08-.08.12-.12.03.04.06.09.11.12.48.38,1.31.14,1.61-.35.06-.1.07-.22.05-.34,0,0,.01,0,.02,0,.37-.11.48-.47.47-.82.23.11.5.13.74.01.27-.13.4-.39.39-.68.03.01.04.04.07.05.49.2,1.11-.2,1.5-.46.11-.07.18-.17.21-.27.49.09,1.1-.07,1.52-.13.23-.04.34-.23.35-.43.01,0,.02,0,.03,0,.94.15,1.85-.1,2.72-.45.27-.11.38-.39.33-.62.09,0,.18.01.28,0,.33-.02.62-.12.91-.26.15-.07.25-.15.41-.12.12.02.32.18.45.22.25.06.56.07.86,0,.53.17,1.24-.08,1.61.32.38.41,1.13-.15.79-.61Z" fill="#eaeaea"/><path d="M25.87.81c-.3-.09-.61-.18-.91-.27-.28-.08-.48.07-.56.27-.09-.02-.19-.06-.28-.06-.37-.01-.74.1-1.03.32-.09.07-.15.16-.19.26-.36.01-.83.12-1.05.37-.12.13-.17.24-.18.35-.39.04-.76.2-1.02.51-.12.14-.14.29-.11.43-.37.15-.68.42-.9.77-.07.11-.07.24-.04.36-.29.07-.54.21-.64.48-.04,0-.07,0-.11.01,0,0-.01,0-.02,0-.05.01-.09.04-.14.06-.01,0-.02.01-.04.02-.03.02-.1.06-.13.11-.03.04-.06.08-.09.12,0,0,0,.01-.01.02-.02.04-.04.09-.06.14,0,0,0,.01,0,.02,0,0,0,.01,0,.02,0,.03-.02.1-.02.15,0,0,0,.01,0,.02,0,.01,0,.04,0,.06-.09.06-.19.12-.27.21-.12.13-.14.29-.11.43-.37.08-.73.24-1.03.48-.11.08-.17.22-.2.36-.07,0-.13,0-.2,0-.64-.06-.64.94,0,1,1.02.1,2.04.08,3.05-.05.29-.04.49-.34.49-.6.42-.06.79-.3.88-.77.01-.07.01-.13,0-.2.51-.11.9-.61,1.19-1.02.04-.05.04-.1.05-.16.15-.07.29-.17.38-.34.13-.24.1-.43-.01-.58.36-.09.69-.33.74-.72,0-.02,0-.03,0-.05.2-.02.4-.09.58-.25.12-.1.14-.22.13-.35.35-.03.68-.24.73-.61,0-.04,0-.08,0-.12.02,0,.04.02.07.02.3.06.56-.07.75-.27.05,0,.1.01.16.02.58.07.65-.83.13-.98Z" fill="#eaeaea"/><path d="M8.91,5.29c-.64,0-.64,1,0,1s.64-1,0-1Z" fill="#eaeaea"/><path d="M8.58,7.78c-.64,0-.64,1,0,1s.64-1,0-1Z" fill="#eaeaea"/><path d="M3.41,4.16c-.64,0-.64,1,0,1s.64-1,0-1Z" fill="#eaeaea"/><path d="M10.47,10.78c-.64,0-.64,1,0,1s.64-1,0-1Z" fill="#eaeaea"/><path d="M9.51,11.39c-.64,0-.64,1,0,1s.64-1,0-1Z" fill="#eaeaea"/><path d="M13.03,7.43c-.64,0-.64,1,0,1s.64-1,0-1Z" fill="#eaeaea"/><path d="M15.45,8.05c-.15,0-.26.06-.34.14-.06-.17-.21-.31-.45-.31-.64,0-.64,1,0,1,.15,0,.26-.06.34-.14.06.17.21.31.45.31.64,0,.64-1,0-1Z" fill="#eaeaea"/><path d="M21.82,1.62c-.64,0-.64,1,0,1s.64-1,0-1Z" fill="#eaeaea"/><path d="M19.78,3.75c-.64,0-.64,1,0,1s.64-1,0-1Z" fill="#eaeaea"/><path d="M18.07,5.51c-.64,0-.64,1,0,1s.64-1,0-1Z" fill="#eaeaea"/><path d="M20.67,2.56c-.64,0-.64,1,0,1s.64-1,0-1Z" fill="#eaeaea"/><path d="M23.46.14c-1.68.33-3.02,1.33-4.1,2.62-.6.72-1.14,1.49-1.79,2.17-.73.76-1.64,1.29-2.39,2.03-.12.12-.16.25-.14.38-.63-.12-1.24-.31-1.82-.57-1.01-.45-1.91-1.12-2.9-1.61-1-.5-2.06-.9-3.14-1.19-2.14-.57-4.38-.73-6.59-.64-.03,0-.04.01-.07.02-.22-.03-.45.06-.5.35-.19,1.06.73,1.88,1.44,2.54.78.72,1.66,1.19,2.69,1.46,1.05.27,2.09.44,3.08.93.87.43,1.88.88,2.38,1.75-1.02.73-2.11,1.34-3.28,1.78-1.72.66-3.56,1.19-4.62,2.82,0,0,0,.01,0,.02-.19.15-.27.39-.14.63.43.77,1.63.41,2.33.39.55-.02,1.11,0,1.65.13.52.13,1,.46,1.55.46.78,0,1.31-.59,1.77-1.15.68-.83,1.46-1.46,2.51-1.75,1.06-.3,2.18-.27,3.23-.58.9-.26,1.71-.74,2.57-1.08,1.06-.42,1.93-.36,3.02-.09.91.23,1.83.44,2.74.1.32-.12.45-.43.3-.73-.18-.36-.46-.58-.79-.79-.48-.31-.63-.51-.79-1.06-.18-.65-.55-1.14-1.08-1.49.19-.26.48-.45.7-.67.28-.27.53-.58.76-.89.49-.66.89-1.37,1.39-2.03.57-.77,1.3-1.33,2.14-1.77.59-.31,1.55-.56,1.61-1.36.12-1.59-2.8-1.31-3.71-1.13ZM21.42,11.07c.07.06.16.11.24.16-.6-.04-1.2-.25-1.8-.38-.81-.17-1.6-.19-2.4.04-.9.26-1.7.74-2.57,1.08-.91.36-1.87.43-2.83.58-.91.14-1.79.4-2.56.92-.71.48-1.16,1.13-1.74,1.73-.37.38-.65.45-1.14.28-.47-.16-.89-.34-1.38-.41-.52-.07-1.05-.08-1.58-.05-.12,0-.48.04-.79.07,1.1-1.26,2.96-1.63,4.44-2.27,1.67-.72,3.2-1.74,4.53-2.97.47-.44-.24-1.14-.71-.71-.23.22-.48.42-.73.62-.43-.7-1.1-1.17-1.81-1.56-.88-.48-1.78-.91-2.76-1.15-.94-.23-1.94-.36-2.79-.86-.44-.26-.82-.6-1.17-.96-.21-.21-.63-.56-.81-.91,1.97-.05,3.94.1,5.86.61,1.07.28,2.11.67,3.09,1.18.92.48,1.76,1.09,2.7,1.52.9.41,1.85.68,2.82.8,1.15.14,2.3-.09,3.45.04.48.06.99.22,1.33.57.34.34.35.78.51,1.21.12.34.32.6.6.82ZM25.49,1.55c-.23.11-.46.23-.69.36-.8.45-1.49,1.02-2.06,1.75-.57.73-1.01,1.54-1.57,2.27-.45.6-1.1,1.04-1.49,1.67-.98-.26-2.01-.08-3.02-.09-.18,0-.36-.02-.55-.03.68-.62,1.46-1.11,2.11-1.77.68-.69,1.23-1.49,1.85-2.23,1.24-1.49,2.83-2.51,4.84-2.47.16,0,1.24.05,1.2.23-.02.1-.54.28-.62.32Z" fill="#334f68"/></svg>